<svg xmlns="http://www.w3.org/2000/svg" viewBox="0 0 1440 320"><path fill="#0099ff" fill-opacity="0.5" d="M0,32L6.2,64C12.3,96,25,160,37,202.7C49.2,245,62,267,74,266.7C86.2,267,98,245,111,218.7C123.1,192,135,160,148,170.7C160,181,172,235,185,240C196.9,245,209,203,222,176C233.8,149,246,139,258,112C270.8,85,283,43,295,53.3C307.7,64,320,128,332,160C344.6,192,357,192,369,181.3C381.5,171,394,149,406,128C418.5,107,431,85,443,74.7C455.4,64,468,64,480,58.7C492.3,53,505,43,517,37.3C529.2,32,542,32,554,42.7C566.2,53,578,75,591,74.7C603.1,75,615,53,628,64C640,75,652,117,665,128C676.9,139,689,117,702,138.7C713.8,160,726,224,738,250.7C750.8,277,763,267,775,224C787.7,181,800,107,812,96C824.6,85,837,139,849,138.7C861.5,139,874,85,886,96C898.5,107,911,181,923,213.3C935.4,245,948,235,960,240C972.3,245,985,267,997,256C1009.2,245,1022,203,1034,165.3C1046.2,128,1058,96,1071,112C1083.1,128,1095,192,1108,208C1120,224,1132,192,1145,186.7C1156.9,181,1169,203,1182,208C1193.8,213,1206,203,1218,170.7C1230.8,139,1243,85,1255,96C1267.7,107,1280,181,1292,224C1304.6,267,1317,277,1329,282.7C1341.5,288,1354,288,1366,245.3C1378.5,203,1391,117,1403,69.3C1415.4,21,1428,11,1434,5.3L1440,0L1440,0L1433.8,0C1427.7,0,1415,0,1403,0C1390.8,0,1378,0,1366,0C1353.8,0,1342,0,1329,0C1316.9,0,1305,0,1292,0C1280,0,1268,0,1255,0C1243.1,0,1231,0,1218,0C1206.2,0,1194,0,1182,0C1169.2,0,1157,0,1145,0C1132.3,0,1120,0,1108,0C1095.4,0,1083,0,1071,0C1058.5,0,1046,0,1034,0C1021.5,0,1009,0,997,0C984.6,0,972,0,960,0C947.7,0,935,0,923,0C910.8,0,898,0,886,0C873.8,0,862,0,849,0C836.9,0,825,0,812,0C800,0,788,0,775,0C763.1,0,751,0,738,0C726.2,0,714,0,702,0C689.2,0,677,0,665,0C652.3,0,640,0,628,0C615.4,0,603,0,591,0C578.5,0,566,0,554,0C541.5,0,529,0,517,0C504.6,0,492,0,480,0C467.7,0,455,0,443,0C430.8,0,418,0,406,0C393.8,0,382,0,369,0C356.9,0,345,0,332,0C320,0,308,0,295,0C283.1,0,271,0,258,0C246.2,0,234,0,222,0C209.2,0,197,0,185,0C172.3,0,160,0,148,0C135.4,0,123,0,111,0C98.5,0,86,0,74,0C61.5,0,49,0,37,0C24.6,0,12,0,6,0L0,0Z"></path></svg>